<svg xmlns="http://www.w3.org/2000/svg" xmlns:xlink="http://www.w3.org/1999/xlink" width="500" zoomAndPan="magnify" viewBox="0 0 375 374.999991" height="500" preserveAspectRatio="xMidYMid meet" version="1.0"><defs><g/><clipPath id="74c542c89d"><path d="M 157.214844 132 L 178 132 L 178 162 L 157.214844 162 Z M 157.214844 132 " clip-rule="nonzero"/></clipPath><clipPath id="7e93c161f9"><path d="M 157.214844 131 L 179 131 L 179 163 L 157.214844 163 Z M 157.214844 131 " clip-rule="nonzero"/></clipPath><clipPath id="65c055ae78"><path d="M 197 132 L 217.964844 132 L 217.964844 162 L 197 162 Z M 197 132 " clip-rule="nonzero"/></clipPath><clipPath id="c1b3081adb"><path d="M 196 131 L 217.964844 131 L 217.964844 163 L 196 163 Z M 196 131 " clip-rule="nonzero"/></clipPath><clipPath id="487c3a8f81"><path d="M 177 123.375 L 198 123.375 L 198 170.625 L 177 170.625 Z M 177 123.375 " clip-rule="nonzero"/></clipPath></defs><g clip-path="url(#74c542c89d)"><path fill="#2a446b" d="M 176.378906 161.898438 C 176.042969 161.898438 175.714844 161.785156 175.449219 161.574219 L 158.460938 148.183594 C 158.09375 147.894531 157.886719 147.464844 157.886719 147 C 157.886719 146.535156 158.09375 146.101562 158.460938 145.8125 L 175.449219 132.421875 C 175.714844 132.214844 176.042969 132.101562 176.378906 132.101562 C 176.84375 132.101562 177.277344 132.308594 177.5625 132.675781 C 177.808594 132.992188 177.921875 133.386719 177.875 133.785156 C 177.828125 134.183594 177.625 134.542969 177.3125 134.792969 L 161.828125 147 L 177.3125 159.203125 C 177.625 159.457031 177.828125 159.8125 177.875 160.210938 C 177.921875 160.613281 177.808594 161.003906 177.5625 161.324219 C 177.277344 161.6875 176.84375 161.898438 176.378906 161.898438 " fill-opacity="1" fill-rule="nonzero"/></g><g clip-path="url(#7e93c161f9)"><path fill="#03fa6e" d="M 176.378906 131.457031 C 175.902344 131.457031 175.433594 131.621094 175.054688 131.917969 L 158.0625 145.308594 C 157.542969 145.722656 157.246094 146.335938 157.246094 147 C 157.246094 147.660156 157.542969 148.277344 158.0625 148.6875 L 175.054688 162.082031 C 175.429688 162.375 175.902344 162.539062 176.378906 162.539062 C 177.042969 162.539062 177.660156 162.238281 178.066406 161.71875 C 178.421875 161.269531 178.578125 160.707031 178.511719 160.136719 C 178.445312 159.566406 178.160156 159.054688 177.707031 158.699219 L 162.863281 147 L 177.707031 135.296875 C 178.160156 134.941406 178.445312 134.429688 178.511719 133.863281 C 178.578125 133.292969 178.421875 132.730469 178.066406 132.277344 C 177.660156 131.753906 177.042969 131.457031 176.378906 131.457031 Z M 176.378906 132.742188 C 176.636719 132.742188 176.890625 132.855469 177.058594 133.070312 C 177.355469 133.449219 177.289062 133.992188 176.914062 134.289062 L 160.789062 147 L 176.914062 159.710938 C 177.289062 160.003906 177.355469 160.550781 177.058594 160.925781 C 176.890625 161.144531 176.636719 161.257812 176.378906 161.257812 C 176.191406 161.257812 176.007812 161.195312 175.847656 161.070312 L 158.855469 147.679688 C 158.648438 147.515625 158.527344 147.261719 158.527344 147 C 158.527344 146.730469 158.648438 146.484375 158.855469 146.320312 L 175.847656 132.925781 C 176.003906 132.800781 176.191406 132.742188 176.378906 132.742188 " fill-opacity="1" fill-rule="nonzero"/></g><g clip-path="url(#65c055ae78)"><path fill="#2a446b" d="M 198.796875 161.898438 C 198.332031 161.898438 197.902344 161.6875 197.613281 161.324219 C 197.101562 160.671875 197.214844 159.71875 197.867188 159.203125 L 213.351562 147 L 197.867188 134.792969 C 197.214844 134.277344 197.101562 133.328125 197.613281 132.675781 C 197.902344 132.308594 198.332031 132.101562 198.796875 132.101562 C 199.132812 132.101562 199.464844 132.214844 199.726562 132.421875 L 216.71875 145.8125 C 217.082031 146.101562 217.289062 146.535156 217.289062 147 C 217.289062 147.464844 217.082031 147.894531 216.714844 148.183594 L 199.726562 161.574219 C 199.464844 161.785156 199.132812 161.898438 198.796875 161.898438 " fill-opacity="1" fill-rule="nonzero"/></g><g clip-path="url(#c1b3081adb)"><path fill="#03fa6e" d="M 198.796875 131.457031 C 198.136719 131.457031 197.519531 131.753906 197.109375 132.277344 C 196.378906 133.210938 196.539062 134.5625 197.46875 135.296875 L 212.316406 147 L 197.46875 158.703125 C 196.539062 159.433594 196.378906 160.789062 197.109375 161.71875 C 197.519531 162.238281 198.136719 162.539062 198.796875 162.539062 C 199.277344 162.539062 199.746094 162.375 200.121094 162.082031 L 217.113281 148.6875 C 217.632812 148.277344 217.929688 147.660156 217.929688 147 C 217.929688 146.335938 217.632812 145.722656 217.117188 145.308594 L 200.125 131.917969 C 199.75 131.621094 199.277344 131.457031 198.796875 131.457031 Z M 198.796875 132.742188 C 198.984375 132.742188 199.175781 132.800781 199.332031 132.925781 L 216.320312 146.320312 C 216.527344 146.484375 216.648438 146.730469 216.648438 147 C 216.648438 147.261719 216.527344 147.515625 216.320312 147.679688 L 199.332031 161.070312 C 199.175781 161.195312 198.984375 161.257812 198.796875 161.257812 C 198.539062 161.257812 198.289062 161.144531 198.117188 160.925781 C 197.824219 160.550781 197.886719 160.003906 198.261719 159.710938 L 214.386719 147 L 198.261719 134.289062 C 197.886719 133.992188 197.824219 133.449219 198.117188 133.070312 C 198.289062 132.855469 198.542969 132.742188 198.796875 132.742188 " fill-opacity="1" fill-rule="nonzero"/></g><path fill="#2a446b" d="M 179.144531 169.980469 C 178.957031 169.980469 178.777344 169.945312 178.601562 169.875 C 178.226562 169.730469 177.929688 169.449219 177.769531 169.082031 C 177.605469 168.710938 177.597656 168.300781 177.742188 167.929688 L 194.335938 124.980469 C 194.558594 124.40625 195.121094 124.019531 195.738281 124.019531 C 195.925781 124.019531 196.109375 124.054688 196.28125 124.121094 C 197.054688 124.421875 197.441406 125.296875 197.140625 126.074219 L 180.550781 169.015625 C 180.328125 169.589844 179.761719 169.980469 179.144531 169.980469 " fill-opacity="1" fill-rule="nonzero"/><g clip-path="url(#487c3a8f81)"><path fill="#03fa6e" d="M 195.738281 123.375 C 194.859375 123.375 194.054688 123.929688 193.738281 124.75 L 177.144531 167.695312 C 176.9375 168.230469 176.953125 168.8125 177.183594 169.339844 C 177.414062 169.863281 177.835938 170.269531 178.371094 170.476562 C 178.621094 170.574219 178.878906 170.621094 179.144531 170.621094 C 180.023438 170.621094 180.828125 170.070312 181.148438 169.246094 L 197.738281 126.304688 C 198.167969 125.199219 197.617188 123.949219 196.511719 123.523438 C 196.265625 123.425781 196.003906 123.375 195.738281 123.375 Z M 195.738281 124.660156 C 195.84375 124.660156 195.945312 124.679688 196.050781 124.71875 C 196.496094 124.890625 196.714844 125.390625 196.542969 125.839844 L 179.949219 168.78125 C 179.820312 169.128906 179.492188 169.335938 179.144531 169.335938 C 179.039062 169.335938 178.9375 169.320312 178.832031 169.277344 C 178.386719 169.105469 178.167969 168.601562 178.339844 168.160156 L 194.933594 125.214844 C 195.066406 124.871094 195.390625 124.660156 195.738281 124.660156 " fill-opacity="1" fill-rule="nonzero"/></g><g fill="#03fa6e" fill-opacity="1"><g transform="translate(98.105268, 216.116295)"><g><path d="M 18.929688 -13.253906 L 25.804688 -13.253906 L 25.804688 -7.167969 C 23.902344 -6.089844 21.746094 -5.550781 19.46875 -5.550781 C 13.421875 -5.550781 8.492188 -9.03125 8.492188 -16.777344 L 8.492188 -16.859375 C 8.492188 -24.644531 13.421875 -28.085938 19.46875 -28.085938 C 23.074219 -28.085938 26.386719 -27.050781 28.871094 -25.269531 L 31.398438 -30.941406 C 27.339844 -33.179688 23.609375 -34.171875 19.304688 -34.171875 C 8.863281 -34.171875 1.699219 -27.132812 1.699219 -16.859375 L 1.699219 -16.777344 C 1.699219 -6.542969 8.863281 0.539062 19.304688 0.539062 C 23.527344 0.539062 28.707031 -0.664062 31.976562 -2.816406 L 31.976562 -18.472656 L 18.929688 -18.472656 Z M 18.929688 -13.253906 "/></g></g></g><g fill="#03fa6e" fill-opacity="1"><g transform="translate(130.863389, 216.116295)"><g><path d="M 13.253906 0.664062 C 15.65625 0.664062 20.339844 0.125 24.273438 -0.578125 L 24.273438 -23.777344 L 17.730469 -23.777344 L 17.730469 -5.386719 C 16.195312 -5.09375 14.703125 -4.96875 13.546875 -4.96875 C 10.4375 -4.96875 8.824219 -6.046875 8.824219 -9.070312 L 8.824219 -23.777344 L 2.238281 -23.777344 L 2.238281 -8.53125 C 2.238281 -1.410156 7.375 0.664062 13.253906 0.664062 Z M 13.253906 0.664062 "/></g></g></g><g fill="#03fa6e" fill-opacity="1"><g transform="translate(155.835672, 216.116295)"><g><path d="M 12.136719 0.539062 C 19.21875 0.539062 22.742188 -2.03125 22.742188 -7.167969 C 22.742188 -10.933594 20.253906 -13.253906 14.910156 -14.746094 L 13.214844 -15.203125 C 10.355469 -16.03125 9.195312 -16.609375 9.195312 -17.8125 C 9.195312 -19.136719 10.605469 -19.59375 13.007812 -19.59375 C 15.035156 -19.59375 17.894531 -19.136719 20.007812 -18.019531 L 21.914062 -22.617188 C 19.46875 -23.902344 15.824219 -24.6875 12.21875 -24.6875 C 6.046875 -24.6875 2.566406 -21.996094 2.566406 -17.605469 C 2.566406 -13.667969 4.804688 -11.351562 9.777344 -10.023438 L 12.011719 -9.445312 C 15.492188 -8.492188 16.277344 -7.953125 16.277344 -6.667969 C 16.277344 -4.929688 14.375 -4.554688 11.558594 -4.554688 C 9.15625 -4.554688 6.253906 -5.09375 3.480469 -6.296875 L 1.699219 -1.53125 C 5.09375 -0.125 8.410156 0.539062 12.136719 0.539062 Z M 12.136719 0.539062 "/></g></g></g><g fill="#03fa6e" fill-opacity="1"><g transform="translate(178.654428, 216.116295)"><g><path d="M 20.421875 0 L 20.421875 -6.089844 L 15.824219 -6.089844 C 13.007812 -6.089844 11.722656 -7.167969 11.722656 -9.816406 L 11.722656 -17.730469 L 20.378906 -17.730469 L 20.378906 -23.777344 L 11.722656 -23.777344 L 11.722656 -31.066406 L 5.136719 -31.066406 L 5.136719 -23.777344 L 0.953125 -23.777344 L 0.953125 -17.730469 L 5.136719 -17.730469 L 5.136719 -7.746094 C 5.136719 -2.566406 7.207031 0 12.882812 0 Z M 20.421875 0 "/></g></g></g><g fill="#03fa6e" fill-opacity="1"><g transform="translate(199.236826, 216.116295)"><g><path d="M 13.339844 -24.605469 C 10.3125 -24.605469 6.792969 -23.941406 5.011719 -23.238281 L 3.5625 -17.398438 C 6.171875 -18.433594 9.570312 -19.054688 11.929688 -19.054688 C 15.574219 -19.054688 17.644531 -17.976562 17.644531 -14.996094 L 17.644531 -14.125 C 15.699219 -14.375 14 -14.457031 12.261719 -14.457031 C 5.757812 -14.457031 1.65625 -12.136719 1.65625 -7.082031 L 1.65625 -7 C 1.65625 -1.410156 6.171875 0.664062 13.460938 0.664062 C 16.691406 0.664062 20.960938 0.207031 24.230469 -0.496094 L 24.230469 -15.203125 C 24.230469 -22.242188 19.925781 -24.605469 13.339844 -24.605469 Z M 8.410156 -7.414062 C 8.410156 -9.527344 10.398438 -10.273438 13.710938 -10.273438 C 14.746094 -10.273438 16.320312 -10.148438 17.644531 -9.941406 L 17.644531 -4.804688 C 16.277344 -4.597656 14.828125 -4.472656 13.710938 -4.472656 C 10.355469 -4.472656 8.410156 -5.300781 8.410156 -7.332031 Z M 8.410156 -7.414062 "/></g></g></g><g fill="#03fa6e" fill-opacity="1"><g transform="translate(224.043462, 216.116295)"><g><path d="M 13.132812 -4.640625 L 7.375 -23.777344 L 0.496094 -23.777344 L 8.617188 0 L 17.644531 0 L 25.765625 -23.777344 L 18.886719 -23.777344 Z M 13.132812 -4.640625 "/></g></g></g><g fill="#03fa6e" fill-opacity="1"><g transform="translate(248.725848, 216.116295)"><g><path d="M 14.871094 0.664062 C 22.65625 0.664062 28.085938 -4.722656 28.085938 -12.054688 L 28.085938 -12.09375 C 28.085938 -19.386719 22.65625 -24.730469 14.871094 -24.730469 C 7.082031 -24.730469 1.699219 -19.386719 1.699219 -12.09375 L 1.699219 -12.054688 C 1.699219 -4.722656 7.125 0.664062 14.871094 0.664062 Z M 14.871094 -5.21875 C 10.933594 -5.21875 8.285156 -8.203125 8.285156 -12.054688 L 8.285156 -12.136719 C 8.285156 -15.949219 10.894531 -18.847656 14.871094 -18.847656 C 18.886719 -18.847656 21.457031 -15.949219 21.457031 -12.136719 L 21.457031 -12.054688 C 21.457031 -8.203125 18.847656 -5.21875 14.871094 -5.21875 Z M 14.871094 -5.21875 "/></g></g></g><g fill="#03fa6e" fill-opacity="1"><g transform="translate(145.513893, 247.349909)"><g><path d="M 9.917969 -3.398438 L 6.246094 -17.226562 L 1.167969 -17.226562 L 1.167969 0 L 4.480469 0 L 4.480469 -14.378906 L 8.261719 0 L 11.554688 0 L 15.3125 -14.359375 L 15.3125 0 L 18.648438 0 L 18.648438 -17.226562 L 13.574219 -17.226562 Z M 9.917969 -3.398438 "/></g></g></g><g fill="#03fa6e" fill-opacity="1"><g transform="translate(164.518402, 247.349909)"><g><path d="M 2.824219 -13.785156 C 3.757812 -13.785156 4.503906 -14.253906 4.503906 -15.273438 C 4.503906 -16.183594 3.824219 -16.738281 2.824219 -16.738281 C 1.847656 -16.738281 1.148438 -16.183594 1.148438 -15.273438 C 1.148438 -14.253906 1.910156 -13.785156 2.824219 -13.785156 Z M 4.523438 0 L 4.523438 -12.191406 L 1.148438 -12.191406 L 1.148438 0 Z M 4.523438 0 "/></g></g></g><g fill="#03fa6e" fill-opacity="1"><g transform="translate(169.380842, 247.349909)"><g><path d="M 4.523438 0 L 4.523438 -9.453125 C 5.308594 -9.578125 6.074219 -9.664062 6.667969 -9.664062 C 8.242188 -9.664062 9.089844 -9.089844 9.089844 -7.5625 L 9.089844 0 L 12.445312 0 L 12.445312 -7.964844 C 12.445312 -11.617188 9.835938 -12.679688 6.816406 -12.679688 C 5.585938 -12.679688 3.1875 -12.402344 1.148438 -12.042969 L 1.148438 0 Z M 4.523438 0 "/></g></g></g><g fill="#03fa6e" fill-opacity="1"><g transform="translate(182.18492, 247.349909)"><g><path d="M 7.878906 -12.679688 C 3.566406 -12.679688 0.871094 -10.578125 0.871094 -6.710938 L 0.871094 -6.667969 C 0.871094 -2.78125 3.417969 -0.550781 7.773438 -0.550781 C 8.496094 -0.550781 9.195312 -0.636719 9.855469 -0.765625 L 9.855469 -0.253906 C 9.855469 1.273438 9.21875 1.933594 7.199219 1.933594 C 6.074219 1.933594 4.140625 1.636719 2.929688 1.125 L 3.675781 4.246094 C 4.4375 4.585938 6.136719 4.90625 7.644531 4.90625 C 10.621094 4.90625 13.234375 3.738281 13.234375 0.0859375 L 13.234375 -11.46875 C 11.957031 -12.0625 9.960938 -12.679688 7.878906 -12.679688 Z M 4.246094 -6.648438 C 4.246094 -8.75 5.585938 -9.664062 7.878906 -9.664062 C 8.539062 -9.664062 9.195312 -9.578125 9.855469 -9.367188 L 9.855469 -3.800781 C 9.132812 -3.632812 8.476562 -3.566406 7.902344 -3.566406 C 5.566406 -3.566406 4.246094 -4.523438 4.246094 -6.625 Z M 4.246094 -6.648438 "/></g></g></g><g fill="#03fa6e" fill-opacity="1"><g transform="translate(195.753441, 247.349909)"><g><path d="M 6.796875 0.339844 C 8.027344 0.339844 10.429688 0.0625 12.445312 -0.296875 L 12.445312 -12.191406 L 9.089844 -12.191406 L 9.089844 -2.761719 C 8.304688 -2.613281 7.539062 -2.546875 6.945312 -2.546875 C 5.351562 -2.546875 4.523438 -3.101562 4.523438 -4.652344 L 4.523438 -12.191406 L 1.148438 -12.191406 L 1.148438 -4.375 C 1.148438 -0.722656 3.78125 0.339844 6.796875 0.339844 Z M 6.796875 0.339844 "/></g></g></g><g fill="#03fa6e" fill-opacity="1"><g transform="translate(208.557519, 247.349909)"><g><path d="M 10.472656 0 L 10.472656 -3.121094 L 8.113281 -3.121094 C 6.667969 -3.121094 6.011719 -3.675781 6.011719 -5.035156 L 6.011719 -9.089844 L 10.449219 -9.089844 L 10.449219 -12.191406 L 6.011719 -12.191406 L 6.011719 -15.929688 L 2.632812 -15.929688 L 2.632812 -12.191406 L 0.488281 -12.191406 L 0.488281 -9.089844 L 2.632812 -9.089844 L 2.632812 -3.972656 C 2.632812 -1.316406 3.695312 0 6.605469 0 Z M 10.472656 0 "/></g></g></g><g fill="#03fa6e" fill-opacity="1"><g transform="translate(219.110761, 247.349909)"><g><path d="M 6.839844 -12.617188 C 5.289062 -12.617188 3.484375 -12.277344 2.570312 -11.914062 L 1.828125 -8.921875 C 3.164062 -9.453125 4.90625 -9.769531 6.117188 -9.769531 C 7.984375 -9.769531 9.046875 -9.21875 9.046875 -7.6875 L 9.046875 -7.242188 C 8.050781 -7.371094 7.179688 -7.414062 6.285156 -7.414062 C 2.953125 -7.414062 0.847656 -6.222656 0.847656 -3.632812 L 0.847656 -3.589844 C 0.847656 -0.722656 3.164062 0.339844 6.902344 0.339844 C 8.558594 0.339844 10.746094 0.105469 12.425781 -0.253906 L 12.425781 -7.796875 C 12.425781 -11.40625 10.214844 -12.617188 6.839844 -12.617188 Z M 4.3125 -3.800781 C 4.3125 -4.886719 5.332031 -5.265625 7.03125 -5.265625 C 7.5625 -5.265625 8.367188 -5.203125 9.046875 -5.097656 L 9.046875 -2.464844 C 8.347656 -2.359375 7.605469 -2.292969 7.03125 -2.292969 C 5.308594 -2.292969 4.3125 -2.71875 4.3125 -3.757812 Z M 4.3125 -3.800781 "/></g></g></g></svg>