<svg xmlns="http://www.w3.org/2000/svg" xmlns:xlink="http://www.w3.org/1999/xlink" width="500" zoomAndPan="magnify" viewBox="0 0 375 374.999991" height="500" preserveAspectRatio="xMidYMid meet" version="1.0"><defs><g/><clipPath id="97aebbed61"><path d="M 95.160156 64.019531 L 287.449219 64.019531 L 287.449219 256.3125 L 95.160156 256.3125 Z M 95.160156 64.019531 " clip-rule="nonzero"/></clipPath><clipPath id="af241d77e1"><path d="M 191.304688 64.019531 C 138.203125 64.019531 95.160156 107.066406 95.160156 160.167969 C 95.160156 213.265625 138.203125 256.3125 191.304688 256.3125 C 244.402344 256.3125 287.449219 213.265625 287.449219 160.167969 C 287.449219 107.066406 244.402344 64.019531 191.304688 64.019531 " clip-rule="nonzero"/></clipPath><clipPath id="1bf656e5ec"><path d="M 138.570312 37.5 L 244.320312 37.5 L 244.320312 255 L 138.570312 255 Z M 138.570312 37.5 " clip-rule="nonzero"/></clipPath></defs><g clip-path="url(#97aebbed61)"><g clip-path="url(#af241d77e1)"><path fill="#c0cdb5" d="M 95.160156 64.019531 L 287.449219 64.019531 L 287.449219 256.3125 L 95.160156 256.3125 Z M 95.160156 64.019531 " fill-opacity="1" fill-rule="nonzero"/></g></g><g clip-path="url(#1bf656e5ec)"><path fill="#000000" d="M 179.664062 71.203125 C 180.15625 68.660156 180.9375 65.628906 181.882812 62.882812 C 181.265625 60.21875 181.800781 57.265625 182.988281 54.4375 C 184.796875 50.21875 188.164062 46.242188 191.28125 43.945312 C 192.925781 42.757812 195.019531 42.265625 196.703125 41.160156 C 197.277344 40.789062 197.972656 40.625 198.507812 40.257812 L 198.714844 40.136719 C 198.960938 39.890625 199.207031 39.683594 199.492188 39.5625 C 200.191406 39.234375 200.519531 39.808594 200.558594 39.890625 C 200.640625 40.011719 200.804688 40.421875 200.4375 40.832031 C 200.394531 40.914062 199.984375 41.160156 199.699219 41.363281 C 199.617188 41.445312 199.535156 41.570312 199.453125 41.691406 C 199.207031 42.144531 198.960938 42.675781 198.714844 43.371094 C 197.972656 45.546875 197.277344 48.621094 195.921875 51.691406 C 194.402344 55.136719 190.953125 58.742188 189.679688 60.257812 C 188.738281 61.40625 187.421875 61.859375 186.109375 62.226562 C 185.125 62.515625 184.097656 62.71875 183.359375 63.414062 C 181.675781 68.210938 180.445312 74.03125 180.691406 76 C 180.8125 76.449219 180.9375 76.898438 181.0625 77.351562 C 182.375 81.738281 183.320312 86.246094 184.015625 90.753906 L 184.140625 90.34375 C 184.714844 88.171875 185.617188 84.8125 186.519531 82.390625 C 187.09375 80.835938 187.671875 79.644531 188.121094 79.238281 C 188.285156 79.074219 188.492188 78.910156 188.695312 78.746094 C 188.738281 78.582031 188.820312 78.375 188.941406 78.253906 C 189.066406 78.128906 189.1875 78.046875 189.3125 77.925781 C 189.230469 77.515625 189.3125 76.898438 189.515625 76.203125 C 190.050781 74.234375 191.527344 71.324219 191.898438 70.589844 C 192.800781 68.824219 193.457031 67.105469 194.976562 65.710938 C 196.988281 63.867188 204.582031 59.6875 210.125 58.332031 C 211.316406 58.046875 212.425781 57.882812 213.367188 57.882812 L 213.410156 57.882812 C 213.65625 57.882812 213.859375 57.882812 214.066406 57.921875 C 214.929688 58.003906 215.585938 58.25 216.117188 58.660156 C 216.324219 58.824219 216.40625 59.03125 216.40625 59.234375 C 216.40625 59.398438 216.367188 59.6875 216.117188 59.972656 C 215.832031 60.300781 214.765625 60.914062 214.601562 61.039062 C 213.203125 62.105469 212.21875 63.496094 211.191406 64.933594 C 210.371094 66.078125 210.003906 67.472656 209.261719 68.621094 C 207.25 71.777344 202.367188 75.382812 198.628906 76.203125 C 196.042969 76.777344 193.5 77.023438 191.242188 78.417969 C 190.585938 79.15625 189.84375 79.726562 189.1875 80.34375 C 188.820312 80.671875 188.449219 81.65625 188 82.882812 C 186.847656 86.082031 185.617188 90.957031 185.207031 92.433594 C 185.042969 93.089844 185.082031 93.910156 185.082031 94.6875 C 185.082031 95.304688 185 95.878906 184.835938 96.367188 C 185 97.761719 185.164062 99.15625 185.328125 100.507812 C 185.371094 100.589844 185.371094 100.632812 185.410156 100.714844 C 185.496094 100.878906 185.496094 101.082031 185.410156 101.246094 C 185.90625 106.125 186.355469 110.960938 186.929688 115.796875 C 187.300781 118.746094 187.585938 121.699219 187.917969 124.691406 L 187.917969 124.609375 C 189.230469 117.191406 192.105469 109.117188 194.527344 101.941406 C 194.527344 101.859375 194.527344 101.777344 194.527344 101.699219 C 194.648438 99.933594 194.730469 95.753906 194.691406 95.261719 C 194.445312 92.96875 195.347656 91.121094 195.839844 88.992188 C 196.25 87.1875 197.234375 85.671875 198.464844 84.320312 C 199.574219 83.046875 200.886719 81.859375 201.914062 80.628906 C 202.898438 79.480469 203.597656 78.910156 204.089844 78.664062 C 204.542969 78.417969 204.871094 78.375 205.035156 78.375 C 205.035156 78.375 205.035156 78.375 205.074219 78.375 C 205.691406 78.375 205.855469 78.828125 205.898438 78.949219 C 206.019531 79.359375 206.0625 79.972656 206.019531 80.671875 C 205.898438 82.066406 205.527344 83.828125 205.363281 84.648438 C 204.828125 87.761719 204.460938 91.285156 202.652344 93.992188 C 201.585938 95.632812 200.230469 96.984375 198.917969 98.417969 C 197.726562 99.730469 196.621094 101.082031 195.921875 102.804688 L 195.921875 102.84375 C 195.921875 102.886719 195.921875 102.886719 195.921875 102.886719 C 195.878906 102.96875 195.839844 103.050781 195.757812 103.132812 C 194.15625 107.84375 192.390625 112.925781 191.035156 117.886719 L 191.078125 117.847656 C 192.105469 116.328125 192.882812 115.429688 196.867188 111.945312 C 199.328125 108.871094 200.972656 106.492188 201.667969 105.589844 C 204.625 101.65625 209.015625 99.851562 213.410156 97.804688 C 214.273438 97.394531 217.925781 95.796875 218.664062 95.507812 C 218.910156 95.425781 219.035156 95.425781 219.074219 95.425781 C 219.363281 95.425781 219.527344 95.550781 219.648438 95.671875 C 219.773438 95.796875 219.894531 96 219.9375 96.285156 C 219.976562 96.53125 219.9375 96.902344 219.773438 97.351562 C 219.199219 99.15625 216.898438 102.886719 216.367188 103.417969 C 213.449219 106.328125 210.863281 109.402344 206.800781 110.632812 C 205.238281 111.082031 202.941406 111.289062 200.890625 111.820312 C 199.699219 112.109375 198.589844 112.519531 197.933594 113.214844 C 197.890625 113.253906 197.808594 113.335938 197.726562 113.335938 C 193.949219 116.65625 193.292969 117.4375 192.269531 118.992188 C 191.9375 119.527344 190.257812 122.230469 189.476562 125.183594 C 189.476562 125.265625 189.433594 125.347656 189.394531 125.386719 C 188.738281 129.28125 188.53125 133.011719 189.066406 136.25 C 189.105469 136.414062 189.066406 136.578125 188.984375 136.699219 C 190.585938 155.59375 191.734375 174.734375 194.773438 193.222656 L 194.773438 193.179688 C 195.386719 188.464844 196.867188 183.382812 198.835938 178.464844 C 198.835938 178.382812 198.878906 178.261719 198.917969 178.179688 C 198.960938 178.054688 199.042969 177.972656 199.082031 177.851562 C 200.3125 174.816406 201.75 171.867188 203.230469 169.121094 C 203.925781 166.988281 204.417969 165.144531 204.707031 164.203125 C 205.40625 161.785156 206.019531 159.40625 206.964844 157.113281 C 207.085938 156.824219 207.25 156.332031 207.414062 155.71875 C 207.414062 155.675781 207.414062 155.636719 207.414062 155.59375 C 207.746094 152.972656 207.414062 150.308594 207.292969 147.683594 C 207.167969 144.855469 207.292969 142.070312 208.566406 139.363281 C 209.261719 137.929688 210.207031 136.496094 211.027344 135.101562 C 211.316406 134.652344 211.601562 134.199219 211.890625 133.707031 C 211.972656 133.585938 212.261719 133.050781 212.34375 132.96875 C 212.546875 132.804688 212.710938 132.722656 212.875 132.722656 C 212.917969 132.722656 212.957031 132.722656 213 132.722656 C 213.203125 132.765625 213.367188 132.847656 213.53125 133.050781 C 213.777344 133.421875 213.941406 133.871094 214.023438 134.363281 C 214.148438 134.9375 214.191406 135.550781 214.355469 136.003906 C 217.023438 144.160156 212.835938 149.488281 209.015625 155.882812 C 208.769531 156.660156 208.605469 157.277344 208.441406 157.644531 C 207.664062 159.570312 207.085938 161.539062 206.511719 163.503906 L 206.59375 163.382812 C 208.03125 161.167969 209.425781 159.203125 210.78125 157.5625 C 212.917969 154.980469 215.585938 153.546875 217.761719 151.210938 C 218.707031 150.183594 219.238281 148.710938 220.140625 147.5625 C 220.222656 147.4375 220.347656 147.316406 220.46875 147.152344 C 220.511719 146.988281 220.550781 146.742188 220.632812 146.496094 C 221.167969 145.019531 222.976562 141.699219 223.304688 141.125 C 224.082031 139.773438 224.410156 138.257812 225.191406 136.945312 C 226.996094 133.832031 230.28125 131.125 233.359375 129.324219 C 234.550781 128.625 238.699219 127.601562 241.285156 126.78125 C 242.0625 126.535156 242.84375 126.207031 242.96875 126.167969 C 243.171875 125.960938 243.378906 125.921875 243.542969 125.921875 C 243.664062 125.921875 243.746094 125.960938 243.789062 125.960938 C 243.992188 126.042969 244.320312 126.207031 244.320312 126.660156 C 244.320312 126.699219 244.320312 126.820312 244.28125 126.984375 C 244.199219 127.191406 243.828125 128.050781 243.828125 128.132812 C 243.582031 128.832031 243.378906 129.570312 243.132812 130.265625 C 242.308594 132.640625 241.324219 135.222656 239.3125 136.90625 C 236.769531 138.953125 234.675781 141.863281 231.761719 143.382812 C 229.914062 144.363281 227.859375 144.898438 225.929688 145.59375 C 224.164062 146.25 222.523438 147.070312 221.332031 148.667969 C 221.292969 148.710938 221.25 148.792969 221.167969 148.832031 C 220.386719 149.980469 219.8125 151.332031 218.910156 152.316406 C 216.777344 154.613281 214.109375 156.046875 212.015625 158.585938 C 209.675781 161.414062 207.085938 165.269531 204.707031 169.613281 C 204.664062 169.695312 204.664062 169.777344 204.625 169.859375 C 204.582031 169.980469 204.5 170.105469 204.378906 170.1875 C 204.132812 170.679688 203.84375 171.171875 203.597656 171.660156 L 203.679688 171.578125 C 207.539062 168.015625 210.660156 165.757812 214.640625 163.875 C 214.683594 163.832031 214.765625 163.75 214.804688 163.667969 C 215.132812 163.339844 215.667969 162.851562 216.28125 162.359375 C 217.761719 161.085938 218.828125 159.695312 220.386719 158.464844 C 223.632812 155.921875 226.546875 152.808594 230.527344 151.332031 C 232.210938 150.71875 234.46875 150.800781 236.234375 150.71875 C 236.972656 150.71875 237.753906 150.636719 238.492188 150.511719 C 238.699219 150.472656 239.066406 150.429688 239.066406 150.429688 C 239.109375 150.429688 239.148438 150.429688 239.191406 150.429688 C 239.519531 150.429688 239.804688 150.636719 239.929688 150.921875 C 240.050781 151.25 239.929688 151.660156 239.640625 151.863281 C 239.640625 151.863281 239.3125 152.070312 239.191406 152.191406 C 238.574219 152.726562 237.957031 153.585938 237.507812 154.285156 C 236.195312 156.25 234.632812 158.21875 232.746094 159.695312 C 230.652344 161.332031 228.3125 162.605469 225.890625 163.628906 C 224.574219 164.203125 223.179688 164.859375 221.703125 164.898438 C 221.660156 164.898438 221.621094 164.898438 221.539062 164.898438 L 221.496094 164.898438 C 219.402344 164.898438 217.472656 164.488281 215.460938 165.269531 C 215.378906 165.308594 215.257812 165.308594 215.175781 165.308594 C 211.234375 167.195312 208.113281 169.488281 204.214844 173.179688 C 203.433594 173.917969 201.832031 175.84375 200.394531 178.546875 C 197.851562 184.820312 196.085938 191.417969 196.042969 197.15625 C 196.042969 198.550781 196.085938 200.105469 196.289062 201.5 C 196.578125 202.933594 196.90625 204.410156 197.195312 205.84375 C 198.835938 213.179688 201.09375 220.394531 203.1875 227.609375 L 203.1875 227.527344 C 203.230469 225.96875 203.394531 224.410156 203.597656 222.855469 C 203.558594 222.773438 203.515625 222.609375 203.558594 222.445312 C 203.558594 222.445312 203.558594 222.402344 203.597656 222.320312 C 203.640625 222.15625 203.722656 221.789062 203.84375 221.339844 C 204.050781 220.273438 204.253906 219.164062 204.542969 218.101562 C 204.910156 216.542969 205.363281 214.984375 205.855469 213.425781 C 205.691406 212.9375 205.609375 211.992188 205.527344 210.886719 C 205.488281 210.273438 205.445312 209.574219 205.40625 208.917969 C 205.199219 208.261719 205.117188 207.605469 205.15625 206.910156 C 205.117188 206.707031 205.074219 206.542969 205.035156 206.378906 C 203.351562 201.664062 200.847656 197.730469 200.972656 192.484375 C 201.011719 190.722656 200.972656 188.917969 200.765625 187.15625 C 200.765625 186.992188 200.765625 185.925781 200.972656 185.472656 C 201.175781 185.023438 201.503906 184.859375 201.792969 184.859375 C 201.792969 184.859375 201.792969 184.859375 201.832031 184.859375 C 201.957031 184.859375 202.285156 184.902344 202.570312 185.269531 C 203.105469 185.925781 205.117188 189.328125 205.28125 189.613281 C 207.332031 193.222656 208.074219 197.320312 207.867188 201.460938 C 207.785156 202.6875 207.375 203.960938 207.046875 205.269531 C 206.921875 205.804688 206.800781 206.335938 206.757812 206.871094 C 206.921875 207.769531 207.003906 208.917969 207.046875 209.984375 L 207.085938 209.902344 C 208.484375 206.089844 210.125 202.402344 211.683594 198.917969 C 211.683594 198.878906 211.683594 198.835938 211.683594 198.796875 C 211.683594 198.589844 211.765625 198.261719 211.890625 197.851562 C 212.425781 196.007812 214.148438 192.113281 214.230469 191.417969 C 214.519531 189 214.394531 186.785156 214.4375 184.65625 C 214.519531 181.210938 215.011719 178.015625 218.089844 174.570312 C 219.199219 173.34375 220.429688 171.742188 221.332031 170.390625 C 221.414062 170.226562 221.496094 169.980469 221.578125 169.734375 C 221.703125 169.449219 221.785156 169.203125 221.949219 169.039062 C 222.152344 168.75 222.441406 168.628906 222.6875 168.628906 C 222.726562 168.628906 222.726562 168.628906 222.769531 168.628906 C 222.933594 168.628906 223.140625 168.667969 223.34375 168.792969 C 223.671875 169.039062 223.960938 169.488281 224.164062 170.0625 C 224.453125 171.007812 224.492188 172.316406 224.617188 172.851562 C 226.339844 181.417969 223.671875 185.597656 220.101562 189.902344 C 217.882812 192.566406 215.339844 195.230469 213.328125 199.125 C 211.070312 204.042969 208.730469 209.453125 207.046875 214.984375 L 207.046875 214.945312 C 208.730469 212.363281 210.945312 210.148438 213 207.851562 C 213.121094 207.730469 213.285156 207.527344 213.53125 207.320312 C 214.558594 205.230469 215.132812 203.058594 216.28125 201.460938 C 217.472656 199.777344 219.117188 198.425781 221.128906 196.910156 C 222.441406 195.925781 224.125 195.394531 225.398438 194.367188 C 226.710938 193.34375 228.1875 192.484375 229.667969 191.664062 C 229.789062 191.621094 230.445312 191.171875 230.816406 191.007812 C 231.019531 190.925781 231.226562 190.882812 231.308594 190.882812 C 231.761719 190.882812 232.007812 191.171875 232.089844 191.5 C 232.417969 192.6875 232.171875 193.792969 231.675781 194.902344 C 231.265625 195.804688 230.734375 196.664062 230.363281 197.484375 C 228.886719 201.089844 224.492188 205.1875 220.800781 206.625 C 219.730469 207.035156 218.5 207.199219 217.269531 207.402344 C 216.242188 207.605469 215.296875 207.851562 214.558594 208.507812 C 214.476562 208.589844 214.394531 208.632812 214.3125 208.671875 C 214.230469 208.753906 214.148438 208.835938 214.105469 208.917969 C 212.054688 211.214844 209.839844 213.425781 208.195312 216.050781 C 207.414062 217.238281 206.675781 218.46875 205.9375 219.699219 C 205.9375 219.738281 205.816406 220.027344 205.773438 220.273438 C 205.652344 220.683594 205.527344 221.175781 205.40625 221.625 C 204.417969 227.074219 204.378906 232.445312 206.101562 237.445312 C 206.144531 237.609375 206.144531 237.773438 206.101562 237.9375 C 206.964844 240.234375 208.359375 242.527344 209.589844 244.863281 C 211.234375 247.9375 212.589844 251.09375 212.464844 254.25 C 212.464844 254.660156 212.097656 254.988281 211.683594 254.988281 C 211.683594 254.988281 211.644531 254.988281 211.644531 254.988281 C 211.191406 254.945312 210.863281 254.621094 210.90625 254.167969 C 211.027344 251.300781 209.714844 248.429688 208.238281 245.601562 C 206.636719 242.570312 204.828125 239.578125 204.089844 236.625 C 202.121094 229.003906 199.617188 221.296875 197.523438 213.550781 C 196.042969 211.910156 194.402344 209.820312 192.679688 207.851562 C 190.667969 206.582031 185.453125 203.34375 181.472656 201.664062 C 180.609375 201.296875 179.871094 201.007812 179.171875 200.84375 L 179.132812 200.84375 C 179.050781 200.84375 178.96875 200.886719 178.886719 200.886719 C 178.886719 200.886719 178.84375 200.886719 178.84375 200.886719 C 178.679688 200.886719 178.269531 200.761719 178.105469 200.722656 L 178.0625 200.722656 C 177.941406 200.722656 177.816406 200.722656 177.734375 200.761719 C 177.121094 200.886719 176.460938 201.214844 175.804688 201.5 C 174.984375 201.871094 174.164062 202.195312 173.261719 202.238281 C 172.808594 202.277344 172.359375 202.277344 171.90625 202.277344 L 171.824219 202.277344 C 169.648438 202.277344 167.429688 201.910156 164.96875 201.214844 C 161.726562 200.3125 158.769531 198.261719 155.855469 196.703125 C 154.828125 196.132812 153.433594 195.925781 152.324219 195.640625 C 152.117188 195.597656 151.707031 195.597656 151.378906 195.640625 C 151.296875 195.640625 151.257812 195.640625 151.214844 195.640625 C 150.847656 195.597656 150.558594 195.515625 150.394531 195.394531 C 150.230469 195.269531 150.105469 195.066406 150.066406 194.859375 C 150.023438 194.65625 150.023438 194.410156 150.230469 194.121094 C 150.601562 193.589844 151.214844 193.179688 152.078125 192.851562 C 153.144531 192.484375 154.625 192.277344 156.304688 192.238281 C 160.738281 192.113281 166.734375 193.015625 170.757812 194.203125 C 172.5625 194.738281 174 195.3125 174.738281 195.886719 C 175.3125 196.335938 175.765625 196.828125 176.175781 197.359375 C 176.625 197.933594 177.078125 198.589844 177.816406 199.164062 C 177.941406 199.164062 178.0625 199.164062 178.1875 199.164062 C 178.226562 199.164062 178.308594 199.164062 178.390625 199.203125 C 179.378906 199.285156 180.648438 199.65625 182.085938 200.269531 C 184.097656 201.089844 186.398438 202.320312 188.492188 203.507812 L 188.449219 203.46875 C 188.449219 203.46875 188.410156 203.425781 188.410156 203.425781 C 187.835938 202.933594 187.21875 202.402344 186.5625 201.828125 C 186.027344 201.5 185.496094 201.050781 184.960938 200.558594 C 180.402344 196.910156 174.367188 192.402344 169.730469 187.8125 C 169.605469 187.769531 169.523438 187.6875 169.441406 187.566406 C 169.074219 187.074219 168.335938 186.785156 167.59375 186.5 C 166.652344 186.128906 165.707031 185.84375 165.050781 185.515625 C 160.902344 183.300781 156.964844 179.164062 154.828125 174.980469 C 153.144531 171.703125 152.242188 168.136719 150.640625 164.859375 C 150.273438 164.121094 149.367188 162.808594 149.367188 162.808594 C 149.164062 162.480469 149.203125 162.070312 149.449219 161.824219 C 149.613281 161.660156 149.820312 161.578125 150.023438 161.578125 C 150.1875 161.578125 150.3125 161.621094 150.476562 161.703125 C 150.476562 161.703125 151.75 162.5625 152.40625 163.011719 C 155.363281 164.980469 157.90625 167.359375 160.617188 169.613281 C 163.695312 172.234375 165.378906 174.941406 166.734375 177.851562 C 168.007812 180.554688 168.992188 183.425781 170.675781 186.457031 C 174.285156 190.066406 178.800781 193.671875 182.824219 196.828125 L 182.824219 196.785156 C 182.621094 196.132812 182.496094 195.394531 182.414062 194.613281 C 182.25 192.648438 180.976562 191.253906 179.625 189.941406 C 178.0625 188.425781 176.378906 186.992188 175.640625 185.1875 C 174.738281 183.015625 174.863281 183.261719 174.535156 181.5 C 174.246094 180.105469 173.957031 178.671875 173.671875 177.234375 C 173.300781 175.433594 172.890625 173.589844 172.5625 171.785156 C 172.523438 171.539062 172.234375 171.128906 172.234375 171.128906 C 172.027344 170.800781 172.070312 170.390625 172.359375 170.105469 C 172.644531 169.859375 173.097656 169.816406 173.382812 170.0625 C 173.382812 170.0625 174.820312 171.210938 175.519531 171.824219 C 178.636719 174.53125 181.226562 177.851562 183.070312 181.5 C 184.589844 184.449219 184.386719 187.6875 184.222656 190.84375 C 184.097656 193.304688 184.015625 195.722656 185.082031 197.933594 C 185.453125 198.550781 185.863281 199.082031 186.273438 199.492188 C 186.726562 199.859375 187.175781 200.230469 187.628906 200.597656 C 187.835938 200.761719 188.039062 200.886719 188.246094 201.007812 C 188.410156 201.089844 188.53125 201.253906 188.613281 201.417969 C 188.984375 201.707031 189.3125 201.992188 189.640625 202.277344 C 192.0625 204.453125 194.566406 207.445312 196.824219 210.109375 L 196.785156 209.984375 C 196.453125 208.753906 196.167969 207.484375 195.878906 206.253906 C 195.714844 205.597656 195.59375 204.941406 195.46875 204.289062 C 195.265625 203.550781 195.101562 202.730469 194.976562 201.910156 C 193.457031 194.328125 192.308594 186.582031 191.363281 178.792969 C 191.160156 178.671875 191.035156 178.464844 190.996094 178.21875 C 190.542969 173.21875 186.890625 164.078125 182.414062 155.308594 C 180.855469 152.929688 179.171875 151.578125 176.710938 150.308594 C 175.191406 149.527344 173.589844 148.503906 171.988281 147.765625 C 171.167969 147.683594 170.015625 147.601562 169.238281 147.765625 C 166.609375 148.300781 164.476562 148.957031 162.546875 149.28125 C 161.765625 149.40625 160.984375 149.488281 160.207031 149.527344 L 160.164062 149.527344 C 158.972656 149.527344 157.785156 149.324219 156.59375 148.792969 C 154.953125 148.09375 153.226562 146.78125 151.257812 144.527344 C 150.847656 144.078125 150.066406 143.464844 149.410156 142.808594 C 148.875 142.234375 148.464844 141.617188 148.34375 141.085938 C 148.300781 140.839844 148.34375 140.59375 148.507812 140.390625 C 148.671875 140.144531 149.203125 139.9375 149.328125 139.898438 C 150.683594 139.609375 152.078125 139.40625 153.472656 139.445312 L 153.515625 139.445312 C 154.046875 139.445312 154.582031 139.488281 155.117188 139.527344 C 159.261719 140.019531 163.324219 140.019531 167.183594 141.988281 C 168.007812 142.398438 169.523438 143.832031 170.796875 144.9375 C 171.496094 145.554688 172.109375 146.128906 172.480469 146.25 C 172.5625 146.292969 172.644531 146.332031 172.726562 146.371094 C 174.328125 147.152344 175.929688 148.136719 177.449219 148.914062 C 178.308594 149.363281 179.050781 149.773438 179.746094 150.265625 L 179.707031 150.183594 C 175.886719 143.382812 171.824219 137.4375 168.664062 134.816406 C 168.089844 134.324219 166.898438 133.667969 165.460938 132.847656 C 164.96875 132.765625 164.476562 132.722656 163.941406 132.683594 C 162.875 132.640625 161.808594 132.683594 160.78125 132.519531 C 157.867188 132.070312 154.871094 130.921875 152.324219 129.445312 C 147.273438 126.535156 145.261719 123.75 143.292969 120.511719 C 142.0625 118.460938 140.828125 116.207031 138.816406 113.625 C 138.570312 113.296875 138.613281 113.007812 138.652344 112.925781 C 138.695312 112.722656 138.816406 112.558594 139.023438 112.4375 C 139.144531 112.355469 139.269531 112.3125 139.515625 112.3125 C 139.597656 112.3125 139.722656 112.355469 139.886719 112.4375 C 140.050781 112.519531 140.460938 112.765625 140.953125 113.089844 C 141.527344 113.460938 142.347656 113.707031 143.003906 113.871094 C 145.589844 114.484375 148.179688 115.222656 150.804688 115.917969 C 153.515625 116.65625 155.773438 118.378906 157.742188 120.46875 C 159.632812 122.4375 161.273438 124.730469 162.914062 126.660156 C 164.148438 128.09375 165.460938 130.222656 166.980469 131.578125 C 167.0625 131.578125 167.101562 131.578125 167.183594 131.617188 C 167.429688 131.699219 167.59375 131.863281 167.675781 132.070312 C 168.703125 132.683594 170.101562 133.914062 170.839844 134.570312 C 170.921875 134.652344 171.003906 134.773438 171.042969 134.898438 C 173.054688 136.945312 175.3125 139.980469 177.613281 143.542969 L 177.613281 143.464844 C 176.792969 140.71875 176.132812 137.847656 175.601562 135.0625 C 175.4375 134.324219 175.4375 133.75 174.699219 131.414062 C 172.070312 129.894531 169.074219 126.660156 167.675781 122.96875 C 167.183594 121.65625 167.0625 120.222656 166.980469 118.910156 C 166.898438 117.765625 166.898438 116.65625 166.652344 115.917969 C 166.242188 114.691406 166.199219 113.335938 165.625 112.109375 C 165.460938 111.78125 165.296875 111.289062 165.089844 111 C 165.050781 110.960938 164.925781 110.796875 164.84375 110.671875 C 164.761719 110.550781 164.722656 110.46875 164.722656 110.386719 C 164.640625 110.101562 164.761719 109.894531 164.84375 109.730469 C 164.96875 109.609375 165.089844 109.484375 165.335938 109.402344 C 165.667969 109.320312 166.199219 109.445312 166.816406 109.894531 C 168.335938 110.960938 170.921875 113.992188 171.453125 114.730469 C 172.398438 116.082031 173.589844 117.109375 174.617188 118.378906 C 176.542969 120.839844 177.203125 122.804688 177.203125 125.960938 C 177.203125 127.109375 176.957031 127.886719 176.710938 128.667969 C 176.503906 129.324219 176.296875 129.976562 176.296875 131.003906 C 176.296875 131.085938 176.296875 131.125 176.257812 131.207031 C 176.996094 133.460938 176.996094 134.078125 177.160156 134.816406 C 178.023438 138.953125 179.007812 143.300781 180.566406 147.191406 C 181.101562 148.464844 181.554688 149.691406 182.003906 150.964844 C 182.457031 151.742188 182.867188 152.5625 183.277344 153.382812 C 183.484375 153.75 183.730469 154.160156 183.933594 154.613281 C 183.976562 154.652344 183.976562 154.734375 184.015625 154.773438 C 184.140625 154.980469 184.304688 155.226562 184.425781 155.472656 C 184.507812 155.59375 184.550781 155.757812 184.550781 155.882812 C 186.929688 160.636719 189.023438 165.433594 190.503906 169.613281 L 190.460938 169.40625 C 188.738281 151.660156 187.753906 133.707031 185.660156 116.207031 C 185.042969 111.207031 184.632812 106.164062 184.097656 101.125 C 183.152344 98.625 182.660156 97.476562 181.019531 93.214844 C 180.566406 92.023438 179.746094 90.957031 178.761719 90.179688 C 178.351562 89.851562 177.980469 89.484375 177.613281 89.074219 C 171.660156 88.785156 164.433594 87.394531 160.453125 81.738281 C 159.140625 79.851562 156.265625 75.792969 155.855469 74.933594 C 155.609375 74.480469 155.773438 74.113281 155.8125 74.03125 C 155.894531 73.867188 156.019531 73.746094 156.183594 73.703125 C 156.265625 73.664062 156.386719 73.621094 156.59375 73.621094 C 156.714844 73.621094 157.003906 73.703125 157.375 73.785156 C 158.726562 74.195312 161.808594 75.464844 162.832031 75.710938 C 165.132812 76.203125 167.101562 76.410156 169.03125 77.761719 C 172.6875 80.300781 172.359375 80.425781 175.066406 83.417969 C 176.625 85.136719 177.980469 87.515625 179.746094 88.992188 C 180.9375 89.976562 181.964844 91.285156 182.496094 92.679688 C 182.824219 93.539062 183.113281 94.320312 183.359375 94.933594 L 183.359375 94.8125 C 182.621094 89.113281 181.59375 83.5 179.953125 78.007812 C 179.828125 77.554688 179.664062 77.0625 179.542969 76.613281 C 179.542969 76.574219 179.542969 76.574219 179.542969 76.53125 C 178.0625 71 177.488281 65.136719 175.640625 59.6875 C 173.382812 56.859375 170.265625 53.90625 167.675781 52.101562 C 164.761719 50.054688 162.832031 46.527344 160.453125 43.90625 C 159.589844 42.921875 158.851562 41.855469 157.90625 40.953125 C 157.742188 40.789062 156.632812 39.890625 156.265625 39.355469 C 155.9375 38.945312 155.976562 38.535156 156.058594 38.332031 C 156.183594 38.085938 156.46875 37.796875 156.882812 37.675781 C 157.25 37.554688 157.824219 37.554688 157.988281 37.554688 C 158.277344 37.511719 158.523438 37.511719 158.808594 37.511719 L 158.890625 37.511719 C 161.847656 37.554688 163.449219 39.273438 165.871094 41.035156 C 170.511719 44.480469 172.808594 46.242188 174.164062 48.496094 C 175.558594 50.792969 176.050781 53.621094 176.996094 59.234375 C 176.996094 59.359375 176.996094 59.480469 176.996094 59.5625 C 178.1875 63.375 178.84375 67.351562 179.664062 71.242188 Z M 179.664062 71.203125 " fill-opacity="1" fill-rule="evenodd"/></g><g fill="#ffffff" fill-opacity="1"><g transform="translate(99.285838, 289.008994)"><g><path d="M 13.9375 0 L 10.609375 -5.515625 C 10.429688 -5.492188 10.15625 -5.484375 9.78125 -5.484375 L 5.453125 -5.484375 L 5.453125 0 L 2.390625 0 L 2.390625 -18.203125 L 9.78125 -18.203125 C 12.101562 -18.203125 13.90625 -17.660156 15.1875 -16.578125 C 16.46875 -15.492188 17.109375 -13.960938 17.109375 -11.984375 C 17.109375 -10.523438 16.78125 -9.289062 16.125 -8.28125 C 15.476562 -7.28125 14.550781 -6.546875 13.34375 -6.078125 L 17.421875 0 Z M 5.453125 -8.234375 L 9.78125 -8.234375 C 12.726562 -8.234375 14.203125 -9.457031 14.203125 -11.90625 C 14.203125 -14.257812 12.726562 -15.4375 9.78125 -15.4375 L 5.453125 -15.4375 Z M 5.453125 -8.234375 "/></g></g></g><g fill="#ffffff" fill-opacity="1"><g transform="translate(123.278207, 289.008994)"><g><path d="M 15.390625 -15.4375 L 5.453125 -15.4375 L 5.453125 -10.53125 L 14.359375 -10.53125 L 14.359375 -7.78125 L 5.453125 -7.78125 L 5.453125 -2.75 L 15.703125 -2.75 L 15.703125 0 L 2.390625 0 L 2.390625 -18.203125 L 15.390625 -18.203125 Z M 15.390625 -15.4375 "/></g></g></g><g fill="#ffffff" fill-opacity="1"><g transform="translate(145.529107, 289.008994)"><g><path d="M 14.84375 -8.9375 L 17.53125 -8.9375 L 17.53125 -2.234375 C 16.59375 -1.523438 15.484375 -0.953125 14.203125 -0.515625 C 12.929688 -0.0859375 11.679688 0.125 10.453125 0.125 C 7.765625 0.125 5.5 -0.757812 3.65625 -2.53125 C 1.8125 -4.3125 0.890625 -6.5 0.890625 -9.09375 C 0.890625 -11.695312 1.820312 -13.878906 3.6875 -15.640625 C 5.5625 -17.398438 7.878906 -18.28125 10.640625 -18.28125 C 11.921875 -18.28125 13.179688 -18.050781 14.421875 -17.59375 C 15.660156 -17.132812 16.726562 -16.515625 17.625 -15.734375 L 15.890625 -13.46875 C 14.398438 -14.851562 12.648438 -15.546875 10.640625 -15.546875 C 8.785156 -15.546875 7.210938 -14.921875 5.921875 -13.671875 C 4.640625 -12.421875 4 -10.894531 4 -9.09375 C 4 -7.28125 4.644531 -5.75 5.9375 -4.5 C 7.226562 -3.25 8.800781 -2.625 10.65625 -2.625 C 12.0625 -2.625 13.457031 -3.039062 14.84375 -3.875 Z M 14.84375 -8.9375 "/></g></g></g><g fill="#ffffff" fill-opacity="1"><g transform="translate(170.197282, 289.008994)"><g><path d="M 17.859375 -18.203125 L 17.859375 -7.546875 C 17.859375 -5.171875 17.15625 -3.296875 15.75 -1.921875 C 14.351562 -0.554688 12.421875 0.125 9.953125 0.125 C 7.492188 0.125 5.554688 -0.554688 4.140625 -1.921875 C 2.734375 -3.296875 2.03125 -5.171875 2.03125 -7.546875 L 2.03125 -18.203125 L 5.09375 -18.203125 L 5.09375 -7.546875 C 5.09375 -6.015625 5.53125 -4.8125 6.40625 -3.9375 C 7.28125 -3.0625 8.472656 -2.625 9.984375 -2.625 C 11.472656 -2.625 12.644531 -3.054688 13.5 -3.921875 C 14.363281 -4.785156 14.796875 -5.992188 14.796875 -7.546875 L 14.796875 -18.203125 Z M 17.859375 -18.203125 "/></g></g></g><g fill="#ffffff" fill-opacity="1"><g transform="translate(195.255333, 289.008994)"><g><path d="M 15.390625 -15.4375 L 5.453125 -15.4375 L 5.453125 -10.53125 L 14.359375 -10.53125 L 14.359375 -7.78125 L 5.453125 -7.78125 L 5.453125 -2.75 L 15.703125 -2.75 L 15.703125 0 L 2.390625 0 L 2.390625 -18.203125 L 15.390625 -18.203125 Z M 15.390625 -15.4375 "/></g></g></g><g fill="#ffffff" fill-opacity="1"><g transform="translate(217.506228, 289.008994)"><g/></g></g><g fill="#ffffff" fill-opacity="1"><g transform="translate(229.412214, 289.008994)"><g><path d="M 21.625 0 L 18.796875 0 L 18.765625 -13.59375 L 13.03125 -1.890625 L 11.03125 -1.890625 L 5.28125 -13.59375 L 5.28125 0 L 2.390625 0 L 2.390625 -18.203125 L 6.03125 -18.203125 L 12.03125 -6.109375 L 18.015625 -18.203125 L 21.625 -18.203125 Z M 21.625 0 "/></g></g></g><g fill="#ffffff" fill-opacity="1"><g transform="translate(258.655013, 289.008994)"><g><path d="M 15.390625 -15.4375 L 5.453125 -15.4375 L 5.453125 -10.53125 L 14.359375 -10.53125 L 14.359375 -7.78125 L 5.453125 -7.78125 L 5.453125 -2.75 L 15.703125 -2.75 L 15.703125 0 L 2.390625 0 L 2.390625 -18.203125 L 15.390625 -18.203125 Z M 15.390625 -15.4375 "/></g></g></g><g fill="#ffffff" fill-opacity="1"><g transform="translate(60.740761, 316.309023)"><g><path d="M 6.6875 0.09375 C 5.582031 0.09375 4.582031 -0.148438 3.6875 -0.640625 C 2.800781 -1.128906 2.101562 -1.804688 1.59375 -2.671875 C 1.082031 -3.546875 0.828125 -4.519531 0.828125 -5.59375 C 0.828125 -6.675781 1.082031 -7.648438 1.59375 -8.515625 C 2.101562 -9.390625 2.804688 -10.070312 3.703125 -10.5625 C 4.597656 -11.050781 5.597656 -11.296875 6.703125 -11.296875 C 7.535156 -11.296875 8.300781 -11.15625 9 -10.875 C 9.707031 -10.601562 10.304688 -10.195312 10.796875 -9.65625 L 10.046875 -8.90625 C 9.171875 -9.789062 8.066406 -10.234375 6.734375 -10.234375 C 5.847656 -10.234375 5.039062 -10.03125 4.3125 -9.625 C 3.59375 -9.226562 3.023438 -8.675781 2.609375 -7.96875 C 2.203125 -7.257812 2 -6.46875 2 -5.59375 C 2 -4.71875 2.203125 -3.925781 2.609375 -3.21875 C 3.023438 -2.519531 3.59375 -1.96875 4.3125 -1.5625 C 5.039062 -1.15625 5.847656 -0.953125 6.734375 -0.953125 C 8.078125 -0.953125 9.179688 -1.398438 10.046875 -2.296875 L 10.796875 -1.546875 C 10.304688 -1.015625 9.707031 -0.609375 9 -0.328125 C 8.289062 -0.046875 7.519531 0.09375 6.6875 0.09375 Z M 6.6875 0.09375 "/></g></g></g><g fill="#ffffff" fill-opacity="1"><g transform="translate(78.145982, 316.309023)"><g><path d="M 6.34375 0.09375 C 4.882812 0.09375 3.75 -0.320312 2.9375 -1.15625 C 2.132812 -1.988281 1.734375 -3.195312 1.734375 -4.78125 L 1.734375 -11.203125 L 2.90625 -11.203125 L 2.90625 -4.828125 C 2.90625 -3.523438 3.195312 -2.550781 3.78125 -1.90625 C 4.375 -1.269531 5.226562 -0.953125 6.34375 -0.953125 C 7.457031 -0.953125 8.304688 -1.269531 8.890625 -1.90625 C 9.484375 -2.550781 9.78125 -3.523438 9.78125 -4.828125 L 9.78125 -11.203125 L 10.921875 -11.203125 L 10.921875 -4.78125 C 10.921875 -3.195312 10.519531 -1.988281 9.71875 -1.15625 C 8.914062 -0.320312 7.789062 0.09375 6.34375 0.09375 Z M 6.34375 0.09375 "/></g></g></g><g fill="#ffffff" fill-opacity="1"><g transform="translate(96.718924, 316.309023)"><g><path d="M 1.828125 -11.203125 L 3.015625 -11.203125 L 3.015625 0 L 1.828125 0 Z M 1.828125 -11.203125 "/></g></g></g><g fill="#ffffff" fill-opacity="1"><g transform="translate(107.45375, 316.309023)"><g><path d="M 1.828125 -11.203125 L 6.390625 -11.203125 C 7.566406 -11.203125 8.609375 -10.960938 9.515625 -10.484375 C 10.421875 -10.015625 11.125 -9.351562 11.625 -8.5 C 12.132812 -7.65625 12.390625 -6.6875 12.390625 -5.59375 C 12.390625 -4.507812 12.132812 -3.539062 11.625 -2.6875 C 11.125 -1.84375 10.421875 -1.179688 9.515625 -0.703125 C 8.609375 -0.234375 7.566406 0 6.390625 0 L 1.828125 0 Z M 6.3125 -1.03125 C 7.300781 -1.03125 8.160156 -1.222656 8.890625 -1.609375 C 9.628906 -1.992188 10.203125 -2.53125 10.609375 -3.21875 C 11.015625 -3.90625 11.21875 -4.695312 11.21875 -5.59375 C 11.21875 -6.488281 11.015625 -7.28125 10.609375 -7.96875 C 10.203125 -8.664062 9.628906 -9.207031 8.890625 -9.59375 C 8.160156 -9.976562 7.300781 -10.171875 6.3125 -10.171875 L 3.015625 -10.171875 L 3.015625 -1.03125 Z M 6.3125 -1.03125 "/></g></g></g><g fill="#ffffff" fill-opacity="1"><g transform="translate(126.57056, 316.309023)"><g><path d="M 8.84375 -2.984375 L 2.609375 -2.984375 L 1.265625 0 L 0.03125 0 L 5.15625 -11.203125 L 6.3125 -11.203125 L 11.4375 0 L 10.1875 0 Z M 8.421875 -3.953125 L 5.734375 -9.96875 L 3.046875 -3.953125 Z M 8.421875 -3.953125 "/></g></g></g><g fill="#ffffff" fill-opacity="1"><g transform="translate(143.943795, 316.309023)"><g><path d="M 11.1875 -11.203125 L 11.1875 0 L 10.203125 0 L 3.015625 -9.09375 L 3.015625 0 L 1.828125 0 L 1.828125 -11.203125 L 2.796875 -11.203125 L 10.015625 -2.109375 L 10.015625 -11.203125 Z M 11.1875 -11.203125 "/></g></g></g><g fill="#ffffff" fill-opacity="1"><g transform="translate(162.852655, 316.309023)"><g><path d="M 1.828125 -11.203125 L 6.390625 -11.203125 C 7.566406 -11.203125 8.609375 -10.960938 9.515625 -10.484375 C 10.421875 -10.015625 11.125 -9.351562 11.625 -8.5 C 12.132812 -7.65625 12.390625 -6.6875 12.390625 -5.59375 C 12.390625 -4.507812 12.132812 -3.539062 11.625 -2.6875 C 11.125 -1.84375 10.421875 -1.179688 9.515625 -0.703125 C 8.609375 -0.234375 7.566406 0 6.390625 0 L 1.828125 0 Z M 6.3125 -1.03125 C 7.300781 -1.03125 8.160156 -1.222656 8.890625 -1.609375 C 9.628906 -1.992188 10.203125 -2.53125 10.609375 -3.21875 C 11.015625 -3.90625 11.21875 -4.695312 11.21875 -5.59375 C 11.21875 -6.488281 11.015625 -7.28125 10.609375 -7.96875 C 10.203125 -8.664062 9.628906 -9.207031 8.890625 -9.59375 C 8.160156 -9.976562 7.300781 -10.171875 6.3125 -10.171875 L 3.015625 -10.171875 L 3.015625 -1.03125 Z M 6.3125 -1.03125 "/></g></g></g><g fill="#ffffff" fill-opacity="1"><g transform="translate(181.96946, 316.309023)"><g><path d="M 6.71875 0.09375 C 5.613281 0.09375 4.609375 -0.148438 3.703125 -0.640625 C 2.804688 -1.140625 2.101562 -1.820312 1.59375 -2.6875 C 1.082031 -3.550781 0.828125 -4.519531 0.828125 -5.59375 C 0.828125 -6.675781 1.082031 -7.648438 1.59375 -8.515625 C 2.101562 -9.378906 2.804688 -10.054688 3.703125 -10.546875 C 4.609375 -11.046875 5.613281 -11.296875 6.71875 -11.296875 C 7.832031 -11.296875 8.832031 -11.050781 9.71875 -10.5625 C 10.613281 -10.070312 11.316406 -9.390625 11.828125 -8.515625 C 12.335938 -7.648438 12.59375 -6.675781 12.59375 -5.59375 C 12.59375 -4.519531 12.335938 -3.546875 11.828125 -2.671875 C 11.316406 -1.804688 10.613281 -1.128906 9.71875 -0.640625 C 8.832031 -0.148438 7.832031 0.09375 6.71875 0.09375 Z M 6.71875 -0.953125 C 7.601562 -0.953125 8.398438 -1.148438 9.109375 -1.546875 C 9.828125 -1.953125 10.390625 -2.507812 10.796875 -3.21875 C 11.203125 -3.925781 11.40625 -4.71875 11.40625 -5.59375 C 11.40625 -6.46875 11.203125 -7.257812 10.796875 -7.96875 C 10.390625 -8.6875 9.828125 -9.242188 9.109375 -9.640625 C 8.398438 -10.035156 7.601562 -10.234375 6.71875 -10.234375 C 5.832031 -10.234375 5.03125 -10.035156 4.3125 -9.640625 C 3.59375 -9.242188 3.023438 -8.6875 2.609375 -7.96875 C 2.203125 -7.257812 2 -6.46875 2 -5.59375 C 2 -4.71875 2.203125 -3.925781 2.609375 -3.21875 C 3.023438 -2.507812 3.59375 -1.953125 4.3125 -1.546875 C 5.03125 -1.148438 5.832031 -0.953125 6.71875 -0.953125 Z M 6.71875 -0.953125 "/></g></g></g><g fill="#ffffff" fill-opacity="1"><g transform="translate(201.294226, 316.309023)"><g/></g></g><g fill="#ffffff" fill-opacity="1"><g transform="translate(211.389219, 316.309023)"><g><path d="M 1.828125 -11.203125 L 6.390625 -11.203125 C 7.566406 -11.203125 8.609375 -10.960938 9.515625 -10.484375 C 10.421875 -10.015625 11.125 -9.351562 11.625 -8.5 C 12.132812 -7.65625 12.390625 -6.6875 12.390625 -5.59375 C 12.390625 -4.507812 12.132812 -3.539062 11.625 -2.6875 C 11.125 -1.84375 10.421875 -1.179688 9.515625 -0.703125 C 8.609375 -0.234375 7.566406 0 6.390625 0 L 1.828125 0 Z M 6.3125 -1.03125 C 7.300781 -1.03125 8.160156 -1.222656 8.890625 -1.609375 C 9.628906 -1.992188 10.203125 -2.53125 10.609375 -3.21875 C 11.015625 -3.90625 11.21875 -4.695312 11.21875 -5.59375 C 11.21875 -6.488281 11.015625 -7.28125 10.609375 -7.96875 C 10.203125 -8.664062 9.628906 -9.207031 8.890625 -9.59375 C 8.160156 -9.976562 7.300781 -10.171875 6.3125 -10.171875 L 3.015625 -10.171875 L 3.015625 -1.03125 Z M 6.3125 -1.03125 "/></g></g></g><g fill="#ffffff" fill-opacity="1"><g transform="translate(230.506024, 316.309023)"><g><path d="M 6.71875 0.09375 C 5.613281 0.09375 4.609375 -0.148438 3.703125 -0.640625 C 2.804688 -1.140625 2.101562 -1.820312 1.59375 -2.6875 C 1.082031 -3.550781 0.828125 -4.519531 0.828125 -5.59375 C 0.828125 -6.675781 1.082031 -7.648438 1.59375 -8.515625 C 2.101562 -9.378906 2.804688 -10.054688 3.703125 -10.546875 C 4.609375 -11.046875 5.613281 -11.296875 6.71875 -11.296875 C 7.832031 -11.296875 8.832031 -11.050781 9.71875 -10.5625 C 10.613281 -10.070312 11.316406 -9.390625 11.828125 -8.515625 C 12.335938 -7.648438 12.59375 -6.675781 12.59375 -5.59375 C 12.59375 -4.519531 12.335938 -3.546875 11.828125 -2.671875 C 11.316406 -1.804688 10.613281 -1.128906 9.71875 -0.640625 C 8.832031 -0.148438 7.832031 0.09375 6.71875 0.09375 Z M 6.71875 -0.953125 C 7.601562 -0.953125 8.398438 -1.148438 9.109375 -1.546875 C 9.828125 -1.953125 10.390625 -2.507812 10.796875 -3.21875 C 11.203125 -3.925781 11.40625 -4.71875 11.40625 -5.59375 C 11.40625 -6.46875 11.203125 -7.257812 10.796875 -7.96875 C 10.390625 -8.6875 9.828125 -9.242188 9.109375 -9.640625 C 8.398438 -10.035156 7.601562 -10.234375 6.71875 -10.234375 C 5.832031 -10.234375 5.03125 -10.035156 4.3125 -9.640625 C 3.59375 -9.242188 3.023438 -8.6875 2.609375 -7.96875 C 2.203125 -7.257812 2 -6.46875 2 -5.59375 C 2 -4.71875 2.203125 -3.925781 2.609375 -3.21875 C 3.023438 -2.507812 3.59375 -1.953125 4.3125 -1.546875 C 5.03125 -1.148438 5.832031 -0.953125 6.71875 -0.953125 Z M 6.71875 -0.953125 "/></g></g></g><g fill="#ffffff" fill-opacity="1"><g transform="translate(249.830791, 316.309023)"><g/></g></g><g fill="#ffffff" fill-opacity="1"><g transform="translate(259.925784, 316.309023)"><g><path d="M 13.453125 -11.203125 L 13.453125 0 L 12.3125 0 L 12.3125 -8.953125 L 7.921875 -1.421875 L 7.359375 -1.421875 L 2.953125 -8.90625 L 2.953125 0 L 1.828125 0 L 1.828125 -11.203125 L 2.796875 -11.203125 L 7.65625 -2.890625 L 12.484375 -11.203125 Z M 13.453125 -11.203125 "/></g></g></g><g fill="#ffffff" fill-opacity="1"><g transform="translate(281.106095, 316.309023)"><g><path d="M 9.75 -1.03125 L 9.75 0 L 1.828125 0 L 1.828125 -11.203125 L 9.5 -11.203125 L 9.5 -10.171875 L 3.015625 -10.171875 L 3.015625 -6.1875 L 8.796875 -6.1875 L 8.796875 -5.1875 L 3.015625 -5.1875 L 3.015625 -1.03125 Z M 9.75 -1.03125 "/></g></g></g><g fill="#ffffff" fill-opacity="1"><g transform="translate(297.711517, 316.309023)"><g><path d="M 1.828125 -11.203125 L 3.015625 -11.203125 L 3.015625 0 L 1.828125 0 Z M 1.828125 -11.203125 "/></g></g></g><g fill="#ffffff" fill-opacity="1"><g transform="translate(308.446349, 316.309023)"><g><path d="M 6.71875 0.09375 C 5.613281 0.09375 4.609375 -0.148438 3.703125 -0.640625 C 2.804688 -1.140625 2.101562 -1.820312 1.59375 -2.6875 C 1.082031 -3.550781 0.828125 -4.519531 0.828125 -5.59375 C 0.828125 -6.675781 1.082031 -7.648438 1.59375 -8.515625 C 2.101562 -9.378906 2.804688 -10.054688 3.703125 -10.546875 C 4.609375 -11.046875 5.613281 -11.296875 6.71875 -11.296875 C 7.832031 -11.296875 8.832031 -11.050781 9.71875 -10.5625 C 10.613281 -10.070312 11.316406 -9.390625 11.828125 -8.515625 C 12.335938 -7.648438 12.59375 -6.675781 12.59375 -5.59375 C 12.59375 -4.519531 12.335938 -3.546875 11.828125 -2.671875 C 11.316406 -1.804688 10.613281 -1.128906 9.71875 -0.640625 C 8.832031 -0.148438 7.832031 0.09375 6.71875 0.09375 Z M 6.71875 -0.953125 C 7.601562 -0.953125 8.398438 -1.148438 9.109375 -1.546875 C 9.828125 -1.953125 10.390625 -2.507812 10.796875 -3.21875 C 11.203125 -3.925781 11.40625 -4.71875 11.40625 -5.59375 C 11.40625 -6.46875 11.203125 -7.257812 10.796875 -7.96875 C 10.390625 -8.6875 9.828125 -9.242188 9.109375 -9.640625 C 8.398438 -10.035156 7.601562 -10.234375 6.71875 -10.234375 C 5.832031 -10.234375 5.03125 -10.035156 4.3125 -9.640625 C 3.59375 -9.242188 3.023438 -8.6875 2.609375 -7.96875 C 2.203125 -7.257812 2 -6.46875 2 -5.59375 C 2 -4.71875 2.203125 -3.925781 2.609375 -3.21875 C 3.023438 -2.507812 3.59375 -1.953125 4.3125 -1.546875 C 5.03125 -1.148438 5.832031 -0.953125 6.71875 -0.953125 Z M 6.71875 -0.953125 "/></g></g></g><g fill="#ffffff" fill-opacity="1"><g transform="translate(53.381386, 338.059022)"><g><path d="M 8.84375 -2.984375 L 2.609375 -2.984375 L 1.265625 0 L 0.03125 0 L 5.15625 -11.203125 L 6.3125 -11.203125 L 11.4375 0 L 10.1875 0 Z M 8.421875 -3.953125 L 5.734375 -9.96875 L 3.046875 -3.953125 Z M 8.421875 -3.953125 "/></g></g></g><g fill="#ffffff" fill-opacity="1"><g transform="translate(70.754621, 338.059022)"><g><path d="M 13.453125 -11.203125 L 13.453125 0 L 12.3125 0 L 12.3125 -8.953125 L 7.921875 -1.421875 L 7.359375 -1.421875 L 2.953125 -8.90625 L 2.953125 0 L 1.828125 0 L 1.828125 -11.203125 L 2.796875 -11.203125 L 7.65625 -2.890625 L 12.484375 -11.203125 Z M 13.453125 -11.203125 "/></g></g></g><g fill="#ffffff" fill-opacity="1"><g transform="translate(91.934938, 338.059022)"><g><path d="M 8.875 -5.78125 C 9.613281 -5.613281 10.179688 -5.289062 10.578125 -4.8125 C 10.984375 -4.34375 11.1875 -3.734375 11.1875 -2.984375 C 11.1875 -2.023438 10.832031 -1.285156 10.125 -0.765625 C 9.414062 -0.253906 8.363281 0 6.96875 0 L 1.828125 0 L 1.828125 -11.203125 L 6.65625 -11.203125 C 7.90625 -11.203125 8.875 -10.953125 9.5625 -10.453125 C 10.25 -9.953125 10.59375 -9.238281 10.59375 -8.3125 C 10.59375 -7.695312 10.441406 -7.171875 10.140625 -6.734375 C 9.835938 -6.304688 9.414062 -5.988281 8.875 -5.78125 Z M 3.015625 -10.21875 L 3.015625 -6.15625 L 6.578125 -6.15625 C 7.484375 -6.15625 8.179688 -6.328125 8.671875 -6.671875 C 9.160156 -7.023438 9.40625 -7.53125 9.40625 -8.1875 C 9.40625 -8.851562 9.160156 -9.359375 8.671875 -9.703125 C 8.179688 -10.046875 7.484375 -10.21875 6.578125 -10.21875 Z M 6.953125 -0.96875 C 7.960938 -0.96875 8.722656 -1.140625 9.234375 -1.484375 C 9.742188 -1.828125 10 -2.363281 10 -3.09375 C 10 -4.488281 8.984375 -5.1875 6.953125 -5.1875 L 3.015625 -5.1875 L 3.015625 -0.96875 Z M 6.953125 -0.96875 "/></g></g></g><g fill="#ffffff" fill-opacity="1"><g transform="translate(109.900027, 338.059022)"><g><path d="M 1.828125 -11.203125 L 3.015625 -11.203125 L 3.015625 0 L 1.828125 0 Z M 1.828125 -11.203125 "/></g></g></g><g fill="#ffffff" fill-opacity="1"><g transform="translate(120.634853, 338.059022)"><g><path d="M 9.75 -1.03125 L 9.75 0 L 1.828125 0 L 1.828125 -11.203125 L 9.5 -11.203125 L 9.5 -10.171875 L 3.015625 -10.171875 L 3.015625 -6.1875 L 8.796875 -6.1875 L 8.796875 -5.1875 L 3.015625 -5.1875 L 3.015625 -1.03125 Z M 9.75 -1.03125 "/></g></g></g><g fill="#ffffff" fill-opacity="1"><g transform="translate(137.240269, 338.059022)"><g><path d="M 11.1875 -11.203125 L 11.1875 0 L 10.203125 0 L 3.015625 -9.09375 L 3.015625 0 L 1.828125 0 L 1.828125 -11.203125 L 2.796875 -11.203125 L 10.015625 -2.109375 L 10.015625 -11.203125 Z M 11.1875 -11.203125 "/></g></g></g><g fill="#ffffff" fill-opacity="1"><g transform="translate(156.149129, 338.059022)"><g><path d="M 4 -10.171875 L 0.0625 -10.171875 L 0.0625 -11.203125 L 9.125 -11.203125 L 9.125 -10.171875 L 5.1875 -10.171875 L 5.1875 0 L 4 0 Z M 4 -10.171875 "/></g></g></g><g fill="#ffffff" fill-opacity="1"><g transform="translate(171.234902, 338.059022)"><g><path d="M 9.75 -1.03125 L 9.75 0 L 1.828125 0 L 1.828125 -11.203125 L 9.5 -11.203125 L 9.5 -10.171875 L 3.015625 -10.171875 L 3.015625 -6.1875 L 8.796875 -6.1875 L 8.796875 -5.1875 L 3.015625 -5.1875 L 3.015625 -1.03125 Z M 9.75 -1.03125 "/></g></g></g><g fill="#ffffff" fill-opacity="1"><g transform="translate(187.840323, 338.059022)"><g/></g></g><g fill="#ffffff" fill-opacity="1"><g transform="translate(197.935316, 338.059022)"><g><path d="M 1.828125 -11.203125 L 6.390625 -11.203125 C 7.566406 -11.203125 8.609375 -10.960938 9.515625 -10.484375 C 10.421875 -10.015625 11.125 -9.351562 11.625 -8.5 C 12.132812 -7.65625 12.390625 -6.6875 12.390625 -5.59375 C 12.390625 -4.507812 12.132812 -3.539062 11.625 -2.6875 C 11.125 -1.84375 10.421875 -1.179688 9.515625 -0.703125 C 8.609375 -0.234375 7.566406 0 6.390625 0 L 1.828125 0 Z M 6.3125 -1.03125 C 7.300781 -1.03125 8.160156 -1.222656 8.890625 -1.609375 C 9.628906 -1.992188 10.203125 -2.53125 10.609375 -3.21875 C 11.015625 -3.90625 11.21875 -4.695312 11.21875 -5.59375 C 11.21875 -6.488281 11.015625 -7.28125 10.609375 -7.96875 C 10.203125 -8.664062 9.628906 -9.207031 8.890625 -9.59375 C 8.160156 -9.976562 7.300781 -10.171875 6.3125 -10.171875 L 3.015625 -10.171875 L 3.015625 -1.03125 Z M 6.3125 -1.03125 "/></g></g></g><g fill="#ffffff" fill-opacity="1"><g transform="translate(217.052121, 338.059022)"><g><path d="M 9.75 -1.03125 L 9.75 0 L 1.828125 0 L 1.828125 -11.203125 L 9.5 -11.203125 L 9.5 -10.171875 L 3.015625 -10.171875 L 3.015625 -6.1875 L 8.796875 -6.1875 L 8.796875 -5.1875 L 3.015625 -5.1875 L 3.015625 -1.03125 Z M 9.75 -1.03125 "/></g></g></g><g fill="#ffffff" fill-opacity="1"><g transform="translate(233.657543, 338.059022)"><g/></g></g><g fill="#ffffff" fill-opacity="1"><g transform="translate(243.752536, 338.059022)"><g><path d="M 3.015625 -10.171875 L 3.015625 -5.78125 L 8.796875 -5.78125 L 8.796875 -4.75 L 3.015625 -4.75 L 3.015625 0 L 1.828125 0 L 1.828125 -11.203125 L 9.5 -11.203125 L 9.5 -10.171875 Z M 3.015625 -10.171875 "/></g></g></g><g fill="#ffffff" fill-opacity="1"><g transform="translate(259.782092, 338.059022)"><g><path d="M 6.71875 0.09375 C 5.613281 0.09375 4.609375 -0.148438 3.703125 -0.640625 C 2.804688 -1.140625 2.101562 -1.820312 1.59375 -2.6875 C 1.082031 -3.550781 0.828125 -4.519531 0.828125 -5.59375 C 0.828125 -6.675781 1.082031 -7.648438 1.59375 -8.515625 C 2.101562 -9.378906 2.804688 -10.054688 3.703125 -10.546875 C 4.609375 -11.046875 5.613281 -11.296875 6.71875 -11.296875 C 7.832031 -11.296875 8.832031 -11.050781 9.71875 -10.5625 C 10.613281 -10.070312 11.316406 -9.390625 11.828125 -8.515625 C 12.335938 -7.648438 12.59375 -6.675781 12.59375 -5.59375 C 12.59375 -4.519531 12.335938 -3.546875 11.828125 -2.671875 C 11.316406 -1.804688 10.613281 -1.128906 9.71875 -0.640625 C 8.832031 -0.148438 7.832031 0.09375 6.71875 0.09375 Z M 6.71875 -0.953125 C 7.601562 -0.953125 8.398438 -1.148438 9.109375 -1.546875 C 9.828125 -1.953125 10.390625 -2.507812 10.796875 -3.21875 C 11.203125 -3.925781 11.40625 -4.71875 11.40625 -5.59375 C 11.40625 -6.46875 11.203125 -7.257812 10.796875 -7.96875 C 10.390625 -8.6875 9.828125 -9.242188 9.109375 -9.640625 C 8.398438 -10.035156 7.601562 -10.234375 6.71875 -10.234375 C 5.832031 -10.234375 5.03125 -10.035156 4.3125 -9.640625 C 3.59375 -9.242188 3.023438 -8.6875 2.609375 -7.96875 C 2.203125 -7.257812 2 -6.46875 2 -5.59375 C 2 -4.71875 2.203125 -3.925781 2.609375 -3.21875 C 3.023438 -2.507812 3.59375 -1.953125 4.3125 -1.546875 C 5.03125 -1.148438 5.832031 -0.953125 6.71875 -0.953125 Z M 6.71875 -0.953125 "/></g></g></g><g fill="#ffffff" fill-opacity="1"><g transform="translate(279.106858, 338.059022)"><g><path d="M 9.46875 0 L 6.90625 -3.59375 C 6.625 -3.5625 6.328125 -3.546875 6.015625 -3.546875 L 3.015625 -3.546875 L 3.015625 0 L 1.828125 0 L 1.828125 -11.203125 L 6.015625 -11.203125 C 7.441406 -11.203125 8.5625 -10.859375 9.375 -10.171875 C 10.1875 -9.492188 10.59375 -8.554688 10.59375 -7.359375 C 10.59375 -6.484375 10.367188 -5.742188 9.921875 -5.140625 C 9.484375 -4.535156 8.851562 -4.101562 8.03125 -3.84375 L 10.765625 0 Z M 5.984375 -4.5625 C 7.085938 -4.5625 7.929688 -4.804688 8.515625 -5.296875 C 9.109375 -5.785156 9.40625 -6.472656 9.40625 -7.359375 C 9.40625 -8.265625 9.109375 -8.957031 8.515625 -9.4375 C 7.929688 -9.925781 7.085938 -10.171875 5.984375 -10.171875 L 3.015625 -10.171875 L 3.015625 -4.5625 Z M 5.984375 -4.5625 "/></g></g></g><g fill="#ffffff" fill-opacity="1"><g transform="translate(296.57608, 338.059022)"><g><path d="M 13.453125 -11.203125 L 13.453125 0 L 12.3125 0 L 12.3125 -8.953125 L 7.921875 -1.421875 L 7.359375 -1.421875 L 2.953125 -8.90625 L 2.953125 0 L 1.828125 0 L 1.828125 -11.203125 L 2.796875 -11.203125 L 7.65625 -2.890625 L 12.484375 -11.203125 Z M 13.453125 -11.203125 "/></g></g></g><g fill="#ffffff" fill-opacity="1"><g transform="translate(317.756391, 338.059022)"><g><path d="M 8.84375 -2.984375 L 2.609375 -2.984375 L 1.265625 0 L 0.03125 0 L 5.15625 -11.203125 L 6.3125 -11.203125 L 11.4375 0 L 10.1875 0 Z M 8.421875 -3.953125 L 5.734375 -9.96875 L 3.046875 -3.953125 Z M 8.421875 -3.953125 "/></g></g></g><g fill="#ffffff" fill-opacity="1"><g transform="translate(108.518101, 359.80902)"><g><path d="M 9.71875 -5.59375 L 10.84375 -5.59375 L 10.84375 -1.328125 C 10.320312 -0.867188 9.703125 -0.515625 8.984375 -0.265625 C 8.273438 -0.0234375 7.523438 0.09375 6.734375 0.09375 C 5.617188 0.09375 4.613281 -0.148438 3.71875 -0.640625 C 2.820312 -1.128906 2.113281 -1.804688 1.59375 -2.671875 C 1.082031 -3.546875 0.828125 -4.519531 0.828125 -5.59375 C 0.828125 -6.675781 1.082031 -7.648438 1.59375 -8.515625 C 2.113281 -9.390625 2.820312 -10.070312 3.71875 -10.5625 C 4.613281 -11.050781 5.625 -11.296875 6.75 -11.296875 C 7.601562 -11.296875 8.382812 -11.160156 9.09375 -10.890625 C 9.8125 -10.617188 10.414062 -10.21875 10.90625 -9.6875 L 10.171875 -8.921875 C 9.285156 -9.796875 8.160156 -10.234375 6.796875 -10.234375 C 5.890625 -10.234375 5.070312 -10.035156 4.34375 -9.640625 C 3.613281 -9.242188 3.039062 -8.6875 2.625 -7.96875 C 2.207031 -7.257812 2 -6.46875 2 -5.59375 C 2 -4.71875 2.207031 -3.925781 2.625 -3.21875 C 3.039062 -2.519531 3.609375 -1.96875 4.328125 -1.5625 C 5.054688 -1.15625 5.875 -0.953125 6.78125 -0.953125 C 7.9375 -0.953125 8.914062 -1.242188 9.71875 -1.828125 Z M 9.71875 -5.59375 "/></g></g></g><g fill="#ffffff" fill-opacity="1"><g transform="translate(126.787122, 359.80902)"><g><path d="M 8.84375 -2.984375 L 2.609375 -2.984375 L 1.265625 0 L 0.03125 0 L 5.15625 -11.203125 L 6.3125 -11.203125 L 11.4375 0 L 10.1875 0 Z M 8.421875 -3.953125 L 5.734375 -9.96875 L 3.046875 -3.953125 Z M 8.421875 -3.953125 "/></g></g></g><g fill="#ffffff" fill-opacity="1"><g transform="translate(144.160357, 359.80902)"><g><path d="M 13.453125 -11.203125 L 13.453125 0 L 12.3125 0 L 12.3125 -8.953125 L 7.921875 -1.421875 L 7.359375 -1.421875 L 2.953125 -8.90625 L 2.953125 0 L 1.828125 0 L 1.828125 -11.203125 L 2.796875 -11.203125 L 7.65625 -2.890625 L 12.484375 -11.203125 Z M 13.453125 -11.203125 "/></g></g></g><g fill="#ffffff" fill-opacity="1"><g transform="translate(165.340674, 359.80902)"><g><path d="M 9.75 -1.03125 L 9.75 0 L 1.828125 0 L 1.828125 -11.203125 L 9.5 -11.203125 L 9.5 -10.171875 L 3.015625 -10.171875 L 3.015625 -6.1875 L 8.796875 -6.1875 L 8.796875 -5.1875 L 3.015625 -5.1875 L 3.015625 -1.03125 Z M 9.75 -1.03125 "/></g></g></g><g fill="#ffffff" fill-opacity="1"><g transform="translate(181.94609, 359.80902)"><g><path d="M 3.015625 -10.171875 L 3.015625 -5.78125 L 8.796875 -5.78125 L 8.796875 -4.75 L 3.015625 -4.75 L 3.015625 0 L 1.828125 0 L 1.828125 -11.203125 L 9.5 -11.203125 L 9.5 -10.171875 Z M 3.015625 -10.171875 "/></g></g></g><g fill="#ffffff" fill-opacity="1"><g transform="translate(197.975651, 359.80902)"><g><path d="M 1.828125 -11.203125 L 3.015625 -11.203125 L 3.015625 0 L 1.828125 0 Z M 1.828125 -11.203125 "/></g></g></g><g fill="#ffffff" fill-opacity="1"><g transform="translate(208.710477, 359.80902)"><g><path d="M 6.6875 0.09375 C 5.582031 0.09375 4.582031 -0.148438 3.6875 -0.640625 C 2.800781 -1.128906 2.101562 -1.804688 1.59375 -2.671875 C 1.082031 -3.546875 0.828125 -4.519531 0.828125 -5.59375 C 0.828125 -6.675781 1.082031 -7.648438 1.59375 -8.515625 C 2.101562 -9.390625 2.804688 -10.070312 3.703125 -10.5625 C 4.597656 -11.050781 5.597656 -11.296875 6.703125 -11.296875 C 7.535156 -11.296875 8.300781 -11.15625 9 -10.875 C 9.707031 -10.601562 10.304688 -10.195312 10.796875 -9.65625 L 10.046875 -8.90625 C 9.171875 -9.789062 8.066406 -10.234375 6.734375 -10.234375 C 5.847656 -10.234375 5.039062 -10.03125 4.3125 -9.625 C 3.59375 -9.226562 3.023438 -8.675781 2.609375 -7.96875 C 2.203125 -7.257812 2 -6.46875 2 -5.59375 C 2 -4.71875 2.203125 -3.925781 2.609375 -3.21875 C 3.023438 -2.519531 3.59375 -1.96875 4.3125 -1.5625 C 5.039062 -1.15625 5.847656 -0.953125 6.734375 -0.953125 C 8.078125 -0.953125 9.179688 -1.398438 10.046875 -2.296875 L 10.796875 -1.546875 C 10.304688 -1.015625 9.707031 -0.609375 9 -0.328125 C 8.289062 -0.046875 7.519531 0.09375 6.6875 0.09375 Z M 6.6875 0.09375 "/></g></g></g><g fill="#ffffff" fill-opacity="1"><g transform="translate(226.115703, 359.80902)"><g><path d="M 8.84375 -2.984375 L 2.609375 -2.984375 L 1.265625 0 L 0.03125 0 L 5.15625 -11.203125 L 6.3125 -11.203125 L 11.4375 0 L 10.1875 0 Z M 8.421875 -3.953125 L 5.734375 -9.96875 L 3.046875 -3.953125 Z M 8.421875 -3.953125 "/></g></g></g><g fill="#ffffff" fill-opacity="1"><g transform="translate(243.488932, 359.80902)"><g><path d="M 1.828125 -11.203125 L 6.390625 -11.203125 C 7.566406 -11.203125 8.609375 -10.960938 9.515625 -10.484375 C 10.421875 -10.015625 11.125 -9.351562 11.625 -8.5 C 12.132812 -7.65625 12.390625 -6.6875 12.390625 -5.59375 C 12.390625 -4.507812 12.132812 -3.539062 11.625 -2.6875 C 11.125 -1.84375 10.421875 -1.179688 9.515625 -0.703125 C 8.609375 -0.234375 7.566406 0 6.390625 0 L 1.828125 0 Z M 6.3125 -1.03125 C 7.300781 -1.03125 8.160156 -1.222656 8.890625 -1.609375 C 9.628906 -1.992188 10.203125 -2.53125 10.609375 -3.21875 C 11.015625 -3.90625 11.21875 -4.695312 11.21875 -5.59375 C 11.21875 -6.488281 11.015625 -7.28125 10.609375 -7.96875 C 10.203125 -8.664062 9.628906 -9.207031 8.890625 -9.59375 C 8.160156 -9.976562 7.300781 -10.171875 6.3125 -10.171875 L 3.015625 -10.171875 L 3.015625 -1.03125 Z M 6.3125 -1.03125 "/></g></g></g><g fill="#ffffff" fill-opacity="1"><g transform="translate(262.605737, 359.80902)"><g><path d="M 8.84375 -2.984375 L 2.609375 -2.984375 L 1.265625 0 L 0.03125 0 L 5.15625 -11.203125 L 6.3125 -11.203125 L 11.4375 0 L 10.1875 0 Z M 8.421875 -3.953125 L 5.734375 -9.96875 L 3.046875 -3.953125 Z M 8.421875 -3.953125 "/></g></g></g></svg>